<?xml version="1.0" standalone="no"?>
<!DOCTYPE svg PUBLIC "-//W3C//DTD SVG 20010904//EN"
 "http://www.w3.org/TR/2001/REC-SVG-20010904/DTD/svg10.dtd">
<svg version="1.0" xmlns="http://www.w3.org/2000/svg"
 width="3481.600000pt" height="1516.800000pt" viewBox="0 0 3481.600000 1516.800000"
 preserveAspectRatio="xMidYMid meet">
<metadata>
Created by potrace 1.13, written by Peter Selinger 2001-2015
</metadata>
<g transform="translate(0.000000,1516.800000) scale(0.080000,-0.080000)"
fill="#000000" stroke="none">
<path d="M8090 17529 c-91 -4 -180 -12 -198 -17 -19 -6 -97 -16 -175 -22 -113
-9 -149 -16 -175 -32 -22 -13 -62 -24 -111 -29 -50 -4 -90 -15 -112 -28 -19
-12 -44 -21 -56 -21 -13 0 -51 -11 -85 -24 -35 -12 -79 -26 -99 -30 -20 -3
-44 -15 -54 -26 -9 -10 -37 -22 -61 -26 -24 -3 -54 -14 -67 -24 -12 -10 -41
-23 -62 -29 -22 -6 -49 -17 -60 -24 -11 -8 -36 -19 -56 -26 -20 -6 -45 -21
-54 -31 -10 -11 -28 -20 -41 -20 -12 0 -35 -10 -51 -23 -15 -13 -59 -39 -98
-57 -38 -19 -83 -45 -98 -57 -16 -13 -35 -23 -43 -23 -8 0 -24 -11 -36 -25
-12 -14 -26 -25 -31 -25 -13 0 -110 -65 -126 -84 -8 -9 -21 -16 -30 -16 -10 0
-30 -13 -46 -30 -16 -16 -33 -30 -38 -30 -5 0 -24 -12 -42 -27 -18 -16 -50
-39 -70 -53 -44 -30 -73 -54 -145 -120 -30 -28 -65 -53 -77 -56 -12 -3 -25
-15 -28 -25 -4 -11 -18 -26 -33 -33 -15 -8 -35 -23 -44 -33 -9 -10 -44 -43
-77 -73 -179 -163 -425 -414 -602 -615 -29 -33 -58 -65 -63 -71 -6 -6 -24 -29
-41 -50 -46 -59 -122 -154 -155 -193 -60 -73 -188 -238 -235 -306 -27 -38 -52
-72 -55 -75 -3 -3 -25 -34 -50 -70 -24 -36 -60 -87 -79 -115 -76 -110 -139
-203 -152 -227 -8 -14 -56 -88 -107 -165 l-93 -140 -67 -26 c-37 -14 -87 -30
-110 -36 -24 -5 -54 -18 -65 -29 -12 -11 -40 -22 -61 -25 -21 -4 -48 -15 -60
-25 -12 -10 -54 -35 -95 -56 -40 -21 -83 -46 -94 -57 -12 -10 -30 -19 -41 -19
-12 0 -34 -13 -49 -30 -16 -16 -33 -30 -39 -30 -6 0 -23 -10 -38 -22 -16 -13
-45 -34 -65 -48 -20 -14 -49 -35 -63 -47 -15 -12 -61 -49 -102 -83 -65 -53
-116 -99 -268 -243 -19 -18 -68 -72 -109 -122 -41 -49 -83 -97 -92 -105 -21
-20 -123 -146 -152 -190 -22 -32 -68 -96 -156 -216 -18 -24 -53 -78 -79 -121
-25 -43 -59 -98 -74 -123 -16 -25 -38 -64 -50 -87 -12 -23 -32 -58 -44 -76
-37 -54 -274 -542 -291 -597 -4 -14 -14 -34 -21 -45 -8 -11 -14 -25 -14 -33 0
-7 -18 -51 -40 -98 -22 -47 -40 -94 -40 -105 0 -11 -11 -42 -25 -69 -14 -27
-25 -57 -25 -67 -1 -10 -9 -36 -20 -58 -11 -22 -19 -46 -20 -53 0 -6 -9 -29
-20 -49 -11 -21 -20 -49 -20 -63 -1 -14 -9 -43 -20 -65 -11 -22 -19 -46 -20
-52 0 -15 -34 -125 -61 -201 -10 -30 -19 -67 -19 -84 0 -17 -9 -45 -19 -62
-10 -17 -22 -51 -26 -76 -4 -25 -20 -94 -37 -155 -16 -60 -35 -146 -43 -190
-7 -44 -20 -97 -29 -117 -9 -21 -16 -55 -16 -77 0 -22 -9 -78 -19 -123 -34
-145 -53 -250 -61 -343 -5 -49 -15 -103 -23 -120 -10 -18 -18 -74 -22 -140 -3
-60 -11 -132 -17 -160 -9 -46 -18 -123 -47 -410 -6 -55 -15 -206 -21 -335 -6
-129 -15 -280 -20 -335 -11 -127 -11 -622 0 -695 5 -30 14 -167 20 -305 5
-137 14 -290 19 -340 25 -247 33 -314 42 -365 6 -30 15 -111 20 -180 6 -84 16
-140 29 -172 12 -29 20 -69 20 -105 0 -54 18 -155 57 -313 9 -36 19 -94 23
-130 4 -36 14 -78 22 -95 8 -16 18 -59 22 -94 4 -36 14 -77 21 -92 8 -15 17
-46 21 -70 4 -24 11 -52 16 -62 5 -10 14 -45 19 -78 5 -32 18 -74 29 -92 11
-17 20 -43 20 -57 0 -25 27 -114 62 -202 10 -26 18 -55 18 -65 0 -10 9 -33 20
-51 11 -18 20 -43 20 -55 0 -13 9 -41 20 -62 11 -22 24 -53 29 -70 20 -66 50
-135 65 -150 9 -9 16 -29 16 -43 0 -15 6 -36 14 -47 7 -11 37 -74 66 -140 29
-66 58 -127 65 -135 7 -8 16 -25 19 -37 4 -12 18 -41 31 -65 14 -24 35 -63 46
-87 12 -24 43 -82 70 -128 26 -46 51 -94 55 -106 3 -12 16 -33 28 -47 12 -14
30 -41 40 -60 10 -19 27 -44 36 -55 10 -11 21 -31 25 -45 4 -14 22 -43 40 -65
18 -22 45 -60 61 -85 83 -130 292 -391 462 -579 171 -189 535 -495 674 -567
22 -12 44 -28 49 -36 5 -9 21 -19 36 -23 15 -3 40 -17 56 -31 16 -13 33 -24
38 -24 5 0 19 -9 31 -20 12 -11 32 -20 45 -20 12 0 36 -14 53 -30 17 -17 41
-30 54 -30 13 0 34 -8 47 -19 13 -10 35 -22 49 -26 14 -4 45 -18 70 -31 25
-13 57 -24 71 -24 14 0 43 -14 64 -30 28 -22 48 -30 79 -30 22 0 55 -7 71 -16
54 -29 270 -83 335 -84 19 0 53 -9 74 -21 55 -29 203 -39 621 -38 411 0 560 9
597 33 16 10 71 23 136 32 60 7 127 20 148 28 22 7 59 17 84 21 25 4 56 14 69
22 14 9 56 19 94 23 46 5 79 15 99 30 16 11 57 26 91 32 34 6 69 16 77 23 8 8
29 17 45 21 17 4 50 18 74 31 24 12 56 23 72 23 15 0 41 11 57 25 16 13 47 28
70 33 22 5 53 19 68 31 15 11 33 21 40 21 7 0 34 11 60 25 26 14 55 25 64 25
9 0 27 11 40 25 13 14 34 25 46 25 12 0 35 10 51 23 15 12 51 33 78 47 28 13
72 39 99 57 26 18 56 33 65 33 10 0 28 11 41 25 13 14 27 25 31 25 9 0 109 61
143 87 16 13 34 23 41 23 7 0 24 10 38 23 48 41 85 67 95 67 5 0 16 7 23 16 8
9 32 28 54 42 22 14 45 30 51 36 6 6 46 36 88 66 43 30 94 70 114 87 20 18 42
33 49 33 7 0 13 4 13 9 0 5 29 30 65 55 35 26 68 52 72 59 4 7 58 55 118 107
199 171 492 459 684 672 73 82 136 148 140 148 13 0 61 -56 61 -71 0 -16 91
-145 165 -235 55 -66 189 -184 209 -184 7 0 21 -8 30 -19 9 -10 38 -27 64 -36
26 -10 52 -22 58 -27 13 -9 126 -28 219 -35 113 -9 379 51 431 99 11 9 36 19
56 23 20 4 39 13 42 20 2 7 26 24 53 38 82 42 98 51 128 75 69 53 232 186 255
207 154 142 279 266 341 340 19 22 36 42 39 45 54 49 381 450 461 565 23 33
55 75 70 93 34 39 43 70 36 119 -13 75 -63 91 -120 39 -15 -14 -33 -29 -41
-33 -8 -4 -25 -23 -38 -40 -40 -56 -217 -261 -277 -321 -68 -69 -176 -162
-188 -162 -4 0 -26 -14 -47 -30 -22 -17 -48 -30 -58 -30 -10 0 -36 -9 -58 -20
-52 -26 -126 -26 -160 0 -14 11 -35 20 -46 20 -12 0 -32 11 -45 23 -13 13 -32
28 -42 34 -10 5 -37 32 -60 60 -23 28 -87 105 -142 171 -95 115 -144 176 -254
319 -43 55 -165 231 -230 331 -13 21 -35 50 -49 65 -39 41 -22 60 62 69 37 3
77 13 89 21 12 8 45 19 72 25 28 6 72 20 99 31 26 12 56 21 66 21 10 0 32 11
48 25 17 14 39 25 49 25 11 0 30 11 43 25 13 14 29 25 35 25 16 0 135 79 135
90 0 5 10 12 23 15 12 4 33 18 47 31 14 13 54 48 90 77 36 28 131 119 213 201
103 104 151 146 158 139 6 -6 14 -35 19 -64 4 -30 15 -72 24 -94 8 -22 15 -54
16 -70 0 -17 9 -48 20 -70 11 -22 20 -47 20 -57 0 -10 9 -35 20 -55 11 -21 20
-44 20 -51 0 -7 11 -28 25 -46 14 -18 25 -38 25 -44 0 -27 141 -184 190 -212
15 -8 40 -24 56 -35 25 -18 44 -20 169 -20 134 0 143 1 194 28 29 15 63 27 76
27 23 0 53 20 171 117 74 60 163 164 201 234 12 23 38 69 58 104 19 35 35 71
35 80 0 9 9 33 19 53 48 89 75 326 42 365 -38 47 -111 0 -166 -108 -21 -42
-51 -87 -67 -100 -35 -30 -88 -33 -110 -7 -40 45 -41 70 -34 747 3 357 7 1429
7 2382 1 1728 1 1731 -20 1760 -17 24 -21 53 -30 218 -6 105 -13 323 -17 485
-3 173 -12 334 -20 390 -8 52 -19 163 -24 245 -5 83 -16 200 -24 260 -8 61
-18 144 -21 185 -3 41 -12 93 -20 115 -9 24 -14 80 -15 142 0 78 -5 114 -20
153 -11 28 -24 87 -30 133 -16 132 -45 290 -59 314 -6 13 -14 60 -18 105 -3
50 -13 98 -24 120 -11 21 -19 53 -19 73 0 34 -22 125 -61 251 -11 33 -19 75
-19 93 0 17 -8 48 -19 69 -10 20 -22 53 -26 72 -8 41 -41 150 -61 200 -7 19
-16 53 -20 75 -4 22 -15 56 -25 75 -11 19 -19 41 -19 50 0 15 -29 95 -61 168
-10 23 -19 51 -19 61 0 10 -9 29 -19 43 -11 13 -23 38 -26 54 -4 16 -15 47
-24 69 -10 22 -28 65 -41 95 -98 237 -355 705 -480 874 -59 80 -128 169 -159
206 -126 151 -216 252 -233 264 -11 8 -60 53 -108 99 -48 47 -100 93 -116 103
-16 10 -38 28 -49 40 -11 12 -35 29 -52 38 -18 9 -33 20 -33 24 0 4 -23 21
-51 37 -28 17 -63 39 -77 51 -15 12 -38 27 -52 34 -14 7 -54 32 -90 55 -36 24
-76 46 -90 50 -14 4 -38 18 -53 31 -16 13 -36 24 -46 24 -9 0 -32 11 -51 25
-19 14 -39 25 -45 25 -5 0 -31 11 -57 25 -26 14 -53 25 -61 25 -7 0 -28 11
-45 24 -18 13 -54 26 -80 30 -29 4 -54 14 -64 26 -10 11 -30 22 -45 25 -15 3
-48 12 -73 21 -25 9 -68 21 -95 28 -28 7 -65 21 -84 30 -18 10 -68 21 -111 25
-49 5 -91 16 -112 29 -23 14 -59 22 -123 27 -49 3 -144 15 -210 25 -142 22
-318 28 -545 19z m285 -474 c61 -8 152 -20 203 -25 51 -6 106 -17 122 -25 16
-8 71 -19 122 -25 64 -6 100 -15 119 -29 14 -11 54 -25 87 -31 34 -6 81 -20
104 -30 24 -11 53 -20 64 -20 12 0 33 -9 46 -20 14 -10 45 -22 69 -26 24 -4
53 -17 66 -30 13 -13 41 -28 63 -34 21 -6 42 -15 46 -21 3 -6 25 -19 48 -30
80 -38 111 -57 130 -78 11 -12 26 -21 34 -21 14 0 23 -6 144 -105 37 -30 70
-55 73 -55 20 0 404 -385 466 -467 24 -32 75 -98 114 -148 38 -49 82 -108 96
-130 14 -22 52 -80 84 -130 32 -49 68 -106 80 -125 41 -62 139 -242 199 -363
32 -64 62 -119 66 -122 5 -3 11 -23 15 -44 4 -22 13 -45 21 -52 8 -6 14 -17
14 -24 0 -8 11 -36 25 -63 14 -28 25 -56 25 -63 0 -8 9 -27 20 -44 11 -16 20
-39 20 -50 0 -11 7 -30 15 -41 16 -23 39 -85 59 -155 7 -25 21 -57 30 -70 9
-14 20 -45 25 -70 5 -24 22 -75 36 -114 15 -38 31 -90 36 -115 5 -25 18 -66
29 -92 11 -26 20 -59 20 -75 0 -15 9 -46 19 -68 10 -22 21 -58 25 -80 4 -22
14 -59 22 -83 8 -23 14 -58 14 -76 0 -18 8 -53 19 -77 10 -24 22 -73 26 -109
3 -35 13 -79 20 -97 8 -18 17 -54 20 -80 3 -26 13 -75 20 -108 8 -33 17 -91
21 -130 4 -38 12 -83 19 -100 7 -16 16 -73 19 -125 4 -52 15 -135 26 -185 21
-101 48 -343 60 -545 5 -74 15 -180 24 -235 13 -79 16 -185 16 -497 l0 -398
-22 -4 c-13 -3 -57 -7 -99 -11 -42 -3 -107 -14 -145 -25 -38 -11 -78 -20 -89
-20 -11 0 -42 -11 -70 -25 -27 -13 -66 -25 -85 -25 -22 0 -52 -12 -79 -30 -24
-17 -50 -30 -57 -30 -11 0 -114 -51 -178 -87 -11 -7 -31 -13 -43 -13 -13 0
-30 -11 -38 -24 -9 -14 -28 -29 -43 -35 -29 -12 -87 -51 -113 -76 -9 -8 -21
-15 -27 -15 -7 0 -26 -13 -44 -30 -17 -16 -34 -30 -38 -30 -3 0 -31 -22 -61
-50 -29 -27 -56 -50 -59 -50 -9 0 -230 -218 -285 -281 -95 -107 -184 -221
-312 -399 -40 -55 -172 -281 -222 -380 -30 -58 -58 -112 -63 -120 -4 -8 -15
-31 -24 -50 -8 -19 -30 -67 -49 -105 -18 -39 -37 -84 -40 -100 -4 -17 -13 -40
-21 -51 -15 -24 -80 -208 -96 -269 -5 -22 -18 -56 -29 -77 -10 -20 -22 -63
-25 -95 -4 -32 -11 -63 -15 -69 -14 -17 -55 -192 -63 -263 -4 -36 -16 -82 -27
-102 -14 -28 -19 -59 -19 -116 0 -43 -7 -103 -15 -133 -8 -30 -19 -129 -25
-220 -5 -91 -13 -181 -16 -202 -5 -32 4 -182 22 -375 5 -61 5 -63 -18 -63 -20
0 -30 13 -62 78 -21 42 -58 113 -82 157 -23 44 -64 121 -90 170 -27 50 -56
104 -65 120 -10 17 -23 41 -29 55 -7 14 -16 32 -21 40 -5 8 -24 47 -43 85 -20
39 -41 81 -49 95 -20 37 -37 69 -122 235 -42 83 -80 155 -85 160 -4 6 -11 21
-15 35 -4 14 -15 36 -25 50 -10 14 -21 40 -25 57 -3 18 -11 36 -17 39 -5 3
-28 44 -50 90 -22 46 -44 86 -49 90 -5 3 -9 16 -9 29 0 13 -4 26 -9 29 -9 6
-123 233 -201 401 -23 50 -66 140 -95 200 -156 322 -195 405 -195 418 0 8 -7
20 -15 27 -8 7 -15 17 -15 22 0 5 -20 52 -45 105 -25 52 -45 99 -45 105 0 6
-8 25 -19 42 -10 17 -31 60 -47 96 -15 36 -33 72 -39 80 -7 8 -15 30 -19 48
-3 19 -15 45 -26 59 -11 14 -20 35 -20 46 0 11 -6 28 -14 36 -8 9 -29 52 -46
96 -18 44 -38 87 -46 96 -8 8 -14 24 -14 33 0 10 -18 55 -40 101 -22 46 -40
98 -40 116 0 18 18 69 39 114 70 144 118 250 126 275 4 14 14 34 21 45 8 11
14 27 14 36 0 9 9 27 19 41 11 13 23 37 26 51 4 15 22 55 40 89 17 35 35 76
39 92 4 17 16 42 27 57 10 15 19 32 19 39 0 6 16 46 36 88 20 42 42 93 49 112
7 19 20 49 29 65 9 17 16 40 16 52 0 12 4 25 10 28 12 8 56 100 65 137 4 14
15 34 26 44 10 9 19 25 19 35 0 10 10 40 22 66 12 27 33 73 46 103 13 30 30
69 38 85 39 89 63 146 85 200 12 33 31 69 41 81 10 11 18 31 18 45 0 13 6 33
13 44 13 18 143 309 184 410 9 22 22 47 29 55 7 8 17 33 23 55 6 22 20 54 31
70 11 17 20 36 20 43 0 7 16 48 36 90 61 132 87 186 106 223 10 20 18 43 18
52 0 8 7 20 15 27 8 7 15 20 15 29 0 9 7 27 15 41 8 14 23 43 33 65 46 96 156
266 220 337 38 43 102 104 143 138 41 33 87 71 102 85 15 14 36 25 47 25 10 0
31 11 47 24 43 35 141 74 208 81 33 4 76 15 95 25 19 10 55 21 80 25 55 9 110
56 110 95 0 28 -44 99 -63 101 -7 1 -374 1 -817 0 -637 -2 -808 -5 -818 -16
-16 -15 -19 -157 -3 -195 12 -31 68 -90 85 -90 7 0 23 -11 35 -24 12 -13 39
-26 61 -30 22 -3 43 -12 47 -20 4 -7 22 -20 39 -29 17 -9 47 -34 67 -56 44
-49 52 -90 45 -261 -4 -99 -10 -134 -26 -165 -11 -22 -23 -56 -27 -75 -9 -46
-43 -157 -61 -198 -8 -18 -14 -43 -14 -56 0 -13 -8 -34 -19 -47 -10 -13 -21
-40 -25 -59 -7 -33 -26 -84 -68 -176 -10 -22 -18 -49 -18 -60 0 -10 -9 -32
-20 -49 -11 -16 -20 -38 -20 -48 0 -9 -12 -41 -26 -70 -14 -28 -33 -68 -41
-87 -9 -19 -24 -53 -34 -75 -10 -22 -39 -89 -65 -150 -55 -132 -61 -146 -73
-165 -5 -8 -30 -62 -56 -120 -26 -58 -51 -112 -56 -120 -5 -8 -14 -26 -21 -40
-6 -14 -28 -61 -48 -105 -21 -44 -43 -91 -49 -105 -6 -14 -15 -32 -20 -40 -5
-8 -57 -114 -116 -235 -132 -273 -154 -316 -171 -336 -8 -8 -14 -23 -14 -32 0
-16 -54 -123 -71 -142 -5 -5 -9 -16 -9 -25 0 -8 -11 -32 -25 -52 -14 -20 -25
-41 -25 -46 0 -9 -42 -101 -60 -132 -23 -40 -110 -227 -110 -238 0 -7 -4 -12
-10 -12 -5 0 -13 -16 -19 -35 -5 -19 -19 -47 -30 -61 -12 -15 -21 -35 -21 -45
0 -15 -60 -152 -100 -229 -19 -37 -99 -248 -105 -276 -4 -20 -15 -35 -31 -43
-22 -10 -26 -8 -34 14 -5 14 -9 42 -8 63 1 20 -3 237 -10 482 -6 245 -14 936
-17 1535 -3 609 -12 1284 -20 1530 -8 242 -15 578 -15 747 0 262 -2 309 -15
322 -9 8 -21 13 -28 11 -14 -6 -82 -10 -402 -24 -277 -12 -310 -16 -385 -41
-30 -10 -109 -23 -175 -29 -66 -6 -151 -20 -190 -31 -38 -11 -82 -20 -96 -20
-15 0 -43 -7 -62 -15 -20 -8 -80 -20 -134 -26 -59 -7 -118 -20 -148 -34 -29
-13 -80 -25 -121 -29 -39 -3 -98 -14 -130 -25 -32 -10 -86 -21 -119 -25 -33
-4 -81 -14 -106 -22 -25 -8 -83 -15 -130 -17 -81 -2 -84 -1 -87 21 -2 13 1 29
7 36 6 8 47 83 90 167 43 85 99 188 124 229 26 41 57 95 71 120 57 106 395
574 451 625 6 6 45 48 86 95 167 190 389 400 563 531 33 24 75 56 95 71 20 16
63 46 96 68 33 21 69 49 80 60 12 11 28 20 38 20 9 0 26 9 37 20 20 20 62 46
125 79 16 8 45 25 64 38 18 13 44 23 56 23 13 0 30 10 39 24 8 13 30 27 48 31
18 4 44 15 58 25 14 10 36 21 50 25 13 4 36 16 50 26 14 9 46 20 71 23 31 5
53 15 67 31 13 15 33 25 48 25 15 0 52 11 83 23 81 34 219 76 268 81 23 2 55
13 70 24 18 12 60 23 123 31 52 7 124 20 160 31 36 10 106 21 155 25 50 4 122
12 160 19 106 20 486 20 620 1z m-3590 -3441 c39 -8 103 -22 144 -30 46 -8 83
-22 96 -34 12 -12 45 -24 72 -29 28 -4 63 -17 78 -29 15 -12 33 -22 40 -22 7
0 23 -8 36 -19 13 -10 39 -22 56 -25 18 -4 41 -18 51 -30 10 -13 29 -27 42
-31 14 -4 41 -23 61 -42 l37 -35 1 -317 c1 -174 6 -436 11 -581 27 -780 32
-1420 27 -3854 -3 -1888 -7 -2530 -16 -2556 -6 -19 -16 -67 -21 -106 -5 -39
-16 -84 -24 -100 -8 -16 -26 -55 -40 -86 -41 -96 -151 -219 -208 -233 -15 -4
-36 -17 -48 -30 -16 -17 -38 -26 -79 -31 -31 -3 -83 -17 -116 -29 -33 -12 -78
-27 -100 -33 -75 -19 -114 -38 -142 -68 -47 -50 -83 -109 -83 -136 0 -30 23
-53 42 -41 7 4 679 10 1492 13 1301 4 1480 7 1486 20 32 65 50 114 50 134 0
47 -16 51 -279 57 -264 7 -327 16 -417 63 -29 14 -55 26 -60 26 -8 0 -40 29
-108 96 -51 51 -121 186 -147 285 -18 69 -20 126 -29 829 -5 415 -14 841 -20
945 -6 105 -13 444 -16 755 -5 474 -4 568 8 583 13 17 15 16 40 -22 14 -22 31
-55 38 -75 6 -19 18 -40 26 -46 7 -7 14 -17 14 -24 0 -9 91 -196 119 -246 5
-8 14 -26 20 -40 6 -14 15 -32 21 -40 6 -8 24 -44 40 -80 16 -36 36 -76 44
-90 15 -25 34 -63 189 -375 44 -88 83 -167 88 -175 4 -8 53 -105 109 -215 56
-110 105 -207 109 -215 30 -57 45 -87 91 -180 28 -58 56 -112 61 -120 4 -8 34
-67 64 -130 31 -63 60 -122 65 -130 14 -22 81 -150 97 -185 8 -16 20 -41 27
-55 7 -14 34 -68 60 -120 26 -52 53 -106 60 -120 17 -31 163 -316 235 -460 29
-58 66 -130 82 -160 16 -30 61 -120 100 -200 39 -80 77 -156 84 -170 7 -14 50
-97 95 -185 45 -88 88 -171 96 -185 8 -14 26 -50 39 -80 14 -30 29 -62 34 -70
6 -8 16 -27 23 -41 7 -15 31 -61 53 -104 22 -42 45 -86 50 -97 6 -11 36 -71
67 -132 32 -61 69 -134 83 -162 24 -46 25 -53 13 -82 -7 -17 -41 -62 -75 -99
-34 -37 -95 -106 -136 -153 -98 -112 -428 -444 -542 -545 -49 -44 -101 -92
-116 -107 -15 -16 -30 -28 -35 -28 -4 0 -33 -24 -65 -52 -31 -29 -73 -66 -93
-83 -20 -16 -49 -41 -65 -55 -16 -14 -57 -45 -90 -70 -34 -25 -79 -60 -100
-78 -21 -17 -41 -32 -45 -32 -3 0 -32 -20 -63 -44 -32 -24 -75 -51 -96 -59
-20 -9 -37 -21 -37 -26 0 -6 -15 -19 -34 -28 -18 -10 -62 -37 -97 -61 -35 -23
-70 -42 -79 -42 -9 0 -25 -10 -36 -21 -10 -12 -37 -30 -59 -40 -22 -10 -68
-34 -101 -53 -34 -19 -72 -37 -85 -41 -13 -4 -36 -18 -51 -30 -15 -13 -45 -26
-67 -30 -21 -3 -47 -15 -57 -26 -9 -10 -24 -19 -33 -19 -9 0 -35 -9 -56 -20
-22 -11 -58 -25 -80 -31 -22 -6 -52 -19 -66 -30 -14 -10 -57 -23 -95 -29 -42
-7 -77 -19 -90 -31 -11 -10 -32 -19 -46 -19 -14 0 -45 -7 -69 -16 -24 -8 -87
-22 -139 -30 -52 -9 -120 -25 -150 -37 -53 -20 -69 -21 -500 -21 -431 0 -447
1 -500 21 -30 12 -73 25 -95 28 -75 12 -140 27 -178 41 -20 8 -48 14 -61 14
-13 0 -35 9 -49 20 -15 12 -51 25 -80 30 -30 4 -71 20 -92 34 -21 14 -48 26
-61 26 -13 0 -44 11 -70 25 -26 14 -52 25 -59 25 -7 0 -20 9 -30 20 -10 11
-34 22 -54 26 -20 4 -47 17 -61 29 -14 12 -42 28 -62 35 -21 6 -38 15 -38 20
0 4 -18 15 -39 23 -22 9 -42 21 -46 27 -3 6 -21 17 -40 24 -18 8 -38 24 -45
35 -6 12 -17 21 -25 21 -14 0 -86 47 -174 112 -20 15 -47 35 -61 45 -25 18
-218 177 -277 229 -107 95 -420 415 -545 559 -121 139 -408 513 -408 532 0 6
-9 18 -20 28 -23 21 -100 151 -100 169 0 7 -11 27 -25 46 -14 19 -25 40 -25
47 0 8 -18 48 -40 89 -22 42 -40 83 -40 92 0 8 -6 23 -14 31 -8 9 -31 57 -51
106 -20 50 -41 94 -46 99 -5 6 -9 17 -9 26 0 8 -8 27 -17 40 -9 13 -27 51 -39
85 -12 33 -35 97 -52 142 -16 46 -35 89 -41 97 -7 8 -19 37 -26 63 -16 57 -41
126 -59 168 -8 17 -17 48 -21 70 -4 22 -13 47 -20 55 -7 8 -18 41 -24 74 -6
32 -15 64 -20 70 -6 7 -15 30 -20 51 -37 142 -51 189 -65 210 -9 13 -16 41
-16 62 -1 21 -8 56 -16 78 -9 22 -20 64 -25 94 -5 29 -14 62 -19 72 -6 10 -15
53 -21 95 -6 43 -17 91 -25 107 -9 16 -18 61 -21 100 -2 40 -13 98 -24 130
-10 31 -19 72 -19 90 0 17 -6 66 -14 107 -8 41 -18 111 -21 155 -4 44 -15 114
-25 155 -12 51 -20 135 -24 259 -4 101 -14 231 -22 290 -14 90 -15 186 -11
636 3 294 10 552 16 580 5 28 13 149 16 270 5 157 12 246 25 310 17 80 34 205
60 431 5 39 15 84 23 100 8 16 17 69 21 117 3 49 13 102 21 118 9 16 20 63 25
105 5 41 17 96 25 120 8 25 15 57 15 72 0 15 7 41 16 57 9 17 18 57 21 90 3
33 11 69 18 80 11 19 42 127 67 235 6 25 17 54 24 65 8 11 14 35 14 54 0 19 9
53 20 75 10 23 23 59 29 81 5 22 26 85 45 140 20 55 36 106 36 114 0 8 6 22
14 30 8 9 28 57 45 106 35 105 73 198 88 217 6 7 13 27 17 43 4 17 25 67 47
113 21 45 39 89 39 97 0 7 4 17 10 20 5 3 36 59 68 123 33 64 72 140 87 167
15 28 33 59 39 70 6 11 27 45 47 75 19 30 51 81 70 113 68 118 270 371 369
463 98 92 174 153 210 170 19 9 44 24 55 34 11 10 35 21 52 25 18 3 39 15 46
25 12 18 66 36 199 67 99 23 102 18 95 -122 -4 -60 -13 -132 -22 -160 -10 -31
-19 -114 -24 -220 -5 -93 -14 -186 -20 -204 -6 -19 -15 -109 -21 -200 -5 -92
-14 -222 -20 -291 -12 -157 -12 -378 0 -540 21 -266 30 -346 44 -385 8 -22 15
-69 16 -105 0 -41 7 -80 19 -106 10 -23 22 -57 25 -75 12 -59 58 -224 66 -234
5 -5 11 -28 15 -50 4 -22 16 -56 25 -75 10 -19 28 -62 40 -95 65 -173 232
-500 327 -639 18 -26 33 -52 33 -56 0 -6 46 -77 120 -184 8 -12 41 -56 73 -98
31 -41 57 -79 57 -82 0 -6 63 -84 143 -176 16 -19 36 -45 45 -57 25 -40 40
-27 93 78 22 43 159 248 204 304 46 58 125 178 125 191 0 6 9 19 20 29 11 10
20 25 20 34 0 9 9 30 20 46 28 42 25 60 -18 108 -21 23 -48 55 -60 70 -12 16
-39 50 -61 75 -143 168 -232 290 -406 562 -52 81 -145 250 -145 264 0 8 -6 21
-14 28 -7 8 -26 41 -40 74 -33 73 -56 123 -90 194 -14 30 -26 62 -26 70 0 9
-6 24 -14 35 -7 11 -17 36 -21 55 -4 19 -14 42 -21 51 -8 9 -17 40 -21 70 -3
30 -14 65 -23 79 -10 14 -20 47 -24 73 -4 27 -14 67 -22 89 -8 22 -14 51 -14
64 0 13 -9 50 -19 81 -11 32 -22 101 -25 153 -3 52 -13 124 -23 160 -25 97
-25 543 0 650 9 41 21 124 26 183 5 59 14 114 20 120 5 7 13 33 16 57 10 69
43 162 68 193 19 23 35 30 107 42 47 7 101 19 120 26 91 30 498 32 635 3z
m6556 -3504 c23 -13 26 -65 5 -115 -8 -19 -18 -56 -22 -82 -4 -26 -12 -57 -19
-68 -7 -11 -15 -45 -19 -75 -3 -30 -15 -73 -26 -95 -11 -21 -20 -51 -20 -65 0
-30 -43 -180 -65 -227 -8 -17 -15 -46 -15 -63 0 -18 -8 -51 -19 -74 -10 -23
-25 -68 -33 -101 -9 -33 -25 -91 -37 -130 -12 -38 -27 -92 -32 -120 -6 -27
-17 -57 -25 -66 -8 -9 -19 -38 -24 -65 -5 -27 -23 -87 -40 -134 -17 -47 -35
-101 -39 -120 -4 -19 -13 -46 -21 -59 -7 -14 -18 -47 -26 -75 -7 -28 -24 -82
-39 -121 -15 -38 -31 -90 -37 -115 -6 -25 -19 -56 -29 -69 -11 -13 -19 -36
-19 -50 0 -15 -16 -65 -35 -111 -20 -47 -40 -105 -46 -130 -6 -24 -16 -51 -24
-60 -7 -8 -16 -36 -20 -62 -4 -26 -13 -52 -21 -59 -7 -6 -16 -27 -20 -48 -4
-20 -13 -48 -20 -63 -8 -15 -14 -35 -14 -45 0 -10 -11 -35 -25 -55 -14 -20
-25 -49 -25 -63 0 -15 -7 -39 -15 -53 -8 -15 -21 -45 -29 -67 -8 -22 -26 -71
-41 -110 -15 -38 -32 -88 -39 -110 -6 -22 -19 -54 -29 -72 -9 -18 -17 -39 -17
-48 0 -8 -4 -23 -10 -33 -20 -36 -70 -161 -70 -175 0 -24 -25 -40 -38 -24 -19
22 -42 86 -53 141 -5 29 -18 70 -29 91 -13 26 -20 59 -20 96 0 31 -7 76 -15
99 -8 23 -19 84 -25 134 -5 50 -15 132 -22 181 -16 122 -16 957 0 1075 7 47
16 126 22 177 6 51 15 105 21 120 6 15 15 68 19 116 5 57 14 94 24 106 8 9 20
46 25 82 6 35 21 93 35 129 13 36 30 81 36 100 7 19 21 53 31 75 10 22 32 72
50 110 17 39 47 93 65 121 19 28 34 54 34 58 0 33 265 316 296 316 6 0 28 14
49 30 21 17 43 30 49 30 6 0 32 11 58 25 26 14 62 25 80 25 18 0 47 7 63 16
17 9 44 20 60 24 45 12 264 11 286 0z m-30 -1572 c1 -2 8 -199 14 -438 7 -239
18 -514 23 -610 6 -96 14 -317 17 -491 l6 -315 -45 -60 c-25 -32 -51 -66 -58
-74 -7 -8 -26 -32 -42 -55 -15 -22 -34 -44 -41 -50 -6 -5 -36 -39 -65 -75 -78
-94 -122 -140 -136 -140 -7 0 -14 -6 -17 -13 -8 -21 -165 -137 -186 -137 -10
0 -35 -13 -56 -30 -36 -28 -42 -30 -131 -30 -89 0 -95 1 -123 29 -16 16 -33
30 -38 32 -5 2 -24 27 -43 54 -30 45 -34 59 -38 134 -4 75 -2 89 21 135 35 70
107 242 107 256 0 6 9 28 20 48 11 20 38 82 61 137 22 55 51 123 65 150 13 28
24 56 24 64 0 7 6 25 14 39 25 46 66 144 66 157 0 7 8 23 19 36 10 13 22 40
26 59 4 19 11 40 15 45 4 6 20 42 35 80 15 39 38 91 51 117 13 26 24 53 24 60
0 7 16 44 35 82 19 38 37 83 41 100 3 17 12 38 19 46 7 8 18 33 25 55 7 22 21
56 31 75 11 19 19 41 19 48 0 8 6 26 13 40 33 64 57 120 67 154 6 20 18 42 26
48 7 7 14 20 14 29 1 9 9 34 20 56 11 22 19 47 20 56 0 29 72 114 81 97z"/>
<path d="M41625 16333 c-29 -2 -58 -12 -70 -22 -11 -10 -38 -24 -60 -31 -22
-7 -46 -18 -54 -24 -8 -6 -31 -20 -52 -31 -44 -23 -119 -84 -163 -134 -17 -19
-40 -44 -52 -55 -29 -29 -103 -148 -137 -221 -69 -146 -73 -159 -101 -290 -7
-33 -19 -71 -26 -85 -20 -35 -20 -442 -1 -485 7 -16 19 -57 27 -90 26 -121 43
-175 63 -208 12 -19 21 -44 21 -55 0 -11 5 -24 11 -28 6 -3 16 -18 23 -33 34
-79 104 -175 185 -254 49 -48 94 -87 99 -87 6 0 17 -9 24 -19 7 -10 45 -33 83
-50 39 -18 93 -44 122 -58 50 -26 57 -27 225 -26 163 1 194 5 238 32 8 5 46
23 84 40 38 17 84 45 103 61 18 17 37 30 41 30 33 0 252 269 278 340 3 8 15
38 28 65 33 70 67 172 97 290 6 22 11 150 11 285 1 219 -2 254 -21 327 -30
119 -71 235 -87 254 -8 8 -14 20 -14 25 0 12 -44 94 -73 136 -96 142 -180 228
-286 293 -71 44 -90 53 -116 59 -16 4 -40 16 -51 27 -19 18 -38 21 -185 24
-90 1 -186 1 -214 -2z m322 -137 c33 -7 73 -23 88 -35 15 -11 35 -21 45 -21 9
0 34 -13 55 -30 21 -16 41 -30 46 -30 19 0 165 -159 211 -230 59 -92 118 -214
118 -246 0 -11 9 -37 21 -58 44 -83 49 -599 6 -682 -8 -16 -18 -46 -22 -67 -4
-20 -16 -54 -26 -74 -11 -21 -19 -42 -19 -49 0 -6 -6 -17 -14 -23 -8 -7 -17
-23 -20 -36 -8 -33 -89 -148 -146 -208 -59 -64 -179 -154 -216 -163 -16 -4
-44 -19 -63 -33 -34 -26 -36 -26 -216 -26 -181 0 -181 0 -223 28 -23 15 -48
27 -55 27 -8 0 -31 11 -51 25 -20 14 -41 25 -45 25 -4 0 -22 13 -38 29 -17 15
-36 32 -44 37 -28 18 -125 136 -166 203 -59 96 -123 247 -123 292 0 22 -12 67
-26 101 -25 60 -25 65 -22 257 2 164 6 201 21 228 9 18 20 54 23 80 6 45 47
165 64 188 4 6 11 21 15 35 4 13 16 36 25 50 9 14 38 57 64 97 46 69 143 166
205 204 17 10 31 23 31 28 0 6 17 13 38 17 20 4 49 17 65 30 15 13 47 26 75
29 26 4 52 8 57 10 26 9 207 3 262 -9z"/>
<path d="M41480 15853 c-4 -140 0 -1246 4 -1251 13 -12 137 -8 148 6 8 8 12
95 13 252 1 218 3 241 20 260 26 29 64 25 120 -12 48 -32 105 -107 105 -138 0
-9 9 -25 20 -35 11 -10 20 -24 20 -31 0 -12 81 -192 101 -224 5 -8 16 -29 24
-47 8 -17 19 -33 25 -35 5 -1 47 -1 92 2 l83 5 -3 35 c-1 19 -9 41 -17 50 -8
9 -15 22 -15 29 0 6 -11 33 -25 59 -14 26 -25 53 -25 61 0 8 -6 22 -14 30 -7
9 -27 46 -43 83 -16 37 -48 88 -71 113 -23 26 -42 53 -42 61 0 20 54 74 73 74
26 0 80 72 109 148 26 69 29 86 25 167 -4 105 -36 202 -83 251 -16 17 -56 44
-89 60 l-60 28 -247 4 c-137 2 -248 0 -248 -5z m489 -223 c49 -39 53 -52 54
-144 0 -83 -20 -131 -61 -147 -15 -6 -86 -13 -158 -16 l-132 -6 -17 27 c-15
22 -17 45 -13 157 5 171 2 167 167 164 118 -2 119 -3 160 -35z"/>
<path d="M25875 15969 c-85 -7 -131 -16 -158 -29 -20 -11 -55 -23 -77 -26 -22
-4 -61 -17 -86 -30 -26 -13 -57 -24 -70 -24 -26 0 -74 -52 -108 -118 -37 -71
-112 -150 -170 -178 -28 -14 -76 -51 -106 -83 -30 -31 -66 -64 -80 -72 -36
-23 -89 -30 -135 -19 -38 9 -42 8 -68 -23 -16 -17 -48 -61 -71 -97 -23 -36
-68 -92 -100 -125 -105 -110 -123 -135 -185 -262 -22 -44 -45 -84 -50 -88 -6
-3 -11 -17 -11 -29 0 -13 -8 -34 -18 -47 -9 -13 -28 -58 -41 -99 -13 -41 -31
-91 -41 -110 -10 -19 -21 -60 -25 -90 -4 -30 -14 -67 -21 -82 -8 -15 -19 -82
-24 -150 -6 -68 -15 -148 -20 -178 -34 -214 -5 -890 45 -1035 7 -22 16 -66 19
-98 4 -32 15 -76 26 -97 11 -22 20 -50 20 -62 0 -13 9 -49 20 -81 11 -31 20
-65 20 -76 0 -10 6 -24 14 -30 8 -7 18 -27 22 -44 3 -18 17 -52 30 -77 13 -25
24 -50 24 -56 0 -19 88 -190 105 -204 8 -7 15 -18 15 -24 0 -6 18 -38 40 -71
22 -33 40 -64 40 -68 0 -21 208 -262 303 -352 108 -103 230 -205 246 -205 4 0
21 -10 37 -22 33 -26 76 -52 119 -72 17 -8 39 -24 49 -35 10 -11 34 -23 52
-27 19 -3 45 -15 59 -25 13 -11 43 -26 67 -34 93 -30 182 -65 192 -75 5 -5 22
-10 36 -10 38 0 63 -22 58 -51 -2 -20 -12 -26 -51 -36 -27 -7 -59 -18 -70 -26
-12 -8 -34 -17 -48 -20 -14 -4 -36 -16 -49 -27 -13 -11 -31 -20 -41 -20 -9 0
-30 -10 -46 -23 -15 -13 -63 -43 -105 -66 -43 -23 -78 -46 -78 -52 0 -5 -12
-12 -27 -15 -16 -4 -40 -18 -54 -33 -15 -14 -43 -37 -64 -51 -217 -146 -601
-546 -810 -845 -27 -38 -51 -72 -54 -75 -13 -11 -51 -70 -51 -78 0 -5 -10 -17
-21 -28 -12 -10 -26 -28 -31 -39 -5 -11 -19 -36 -31 -57 -30 -50 -138 -241
-176 -311 -17 -31 -31 -64 -31 -71 0 -7 -6 -18 -13 -24 -7 -6 -28 -46 -47 -89
-18 -43 -39 -85 -46 -93 -6 -8 -15 -29 -18 -46 -4 -16 -18 -52 -31 -79 -14
-26 -25 -54 -25 -60 0 -14 -33 -96 -55 -136 -8 -14 -17 -46 -21 -70 -4 -24
-13 -51 -20 -60 -8 -8 -17 -31 -20 -50 -6 -35 -35 -133 -60 -205 -8 -23 -17
-66 -21 -95 -3 -30 -13 -67 -21 -84 -8 -16 -18 -64 -23 -106 -4 -42 -15 -98
-23 -123 -9 -26 -16 -61 -16 -79 0 -18 -7 -57 -15 -87 -9 -33 -19 -146 -25
-280 -6 -124 -17 -253 -25 -287 -21 -89 -21 -470 0 -539 8 -27 18 -89 21 -139
5 -86 25 -177 60 -275 9 -25 20 -64 24 -87 4 -24 14 -51 23 -61 10 -10 17 -24
17 -31 0 -19 77 -167 119 -227 84 -121 219 -255 287 -286 13 -6 24 -14 24 -18
0 -4 15 -13 33 -20 17 -7 41 -21 53 -32 11 -10 44 -22 74 -28 30 -6 74 -20 97
-31 40 -19 57 -21 221 -17 156 3 182 6 217 25 22 12 64 24 94 26 33 4 62 13
75 25 11 11 36 24 54 30 18 6 45 20 59 32 14 11 29 20 33 20 11 0 111 62 135
83 11 9 52 44 90 76 184 154 348 354 482 589 26 44 59 70 73 55 5 -4 14 -37
20 -73 7 -36 21 -83 31 -106 11 -23 19 -52 19 -65 0 -13 11 -46 25 -74 13 -27
25 -55 25 -62 0 -6 18 -47 40 -90 22 -43 40 -85 40 -94 0 -9 7 -22 15 -29 8
-6 26 -33 41 -58 54 -93 181 -239 249 -287 15 -11 57 -33 93 -48 61 -27 71
-29 171 -25 92 4 113 8 156 31 27 15 57 36 67 47 11 11 23 20 28 20 10 0 17 6
139 125 82 80 71 67 182 205 88 109 119 150 192 260 105 157 147 225 147 240
0 25 24 52 40 45 23 -9 60 -81 60 -117 0 -34 51 -223 70 -257 5 -11 10 -28 10
-38 0 -10 9 -35 19 -56 10 -20 22 -48 25 -62 13 -52 127 -269 211 -404 71
-113 230 -285 351 -379 16 -12 49 -38 72 -57 24 -19 50 -35 57 -35 7 0 18 -7
25 -16 8 -8 27 -22 44 -30 17 -8 42 -21 56 -28 71 -40 153 -76 172 -76 11 0
44 -11 72 -24 84 -39 185 -67 270 -76 48 -5 102 -18 131 -32 49 -23 55 -23
395 -23 l345 0 65 26 c36 15 92 29 125 33 58 6 105 21 226 72 31 13 68 24 82
24 14 0 35 11 48 25 13 13 40 28 59 31 19 4 42 12 50 19 8 7 31 20 50 29 63
30 207 119 220 136 3 3 28 21 55 40 28 18 64 46 81 62 46 43 85 37 101 -17 39
-130 48 -228 48 -500 0 -279 -7 -345 -51 -475 -9 -25 -19 -65 -24 -90 -5 -25
-18 -63 -29 -85 -12 -21 -21 -45 -21 -51 0 -17 -95 -199 -138 -265 -61 -93
-74 -112 -116 -164 -52 -65 -121 -139 -170 -184 -22 -20 -58 -53 -80 -75 -23
-21 -57 -50 -76 -65 -19 -14 -37 -28 -40 -31 -15 -15 -89 -69 -110 -80 -14 -7
-31 -21 -37 -30 -7 -10 -25 -21 -40 -25 -14 -3 -40 -17 -56 -31 -16 -13 -34
-24 -41 -24 -7 0 -21 -9 -30 -19 -10 -11 -32 -23 -48 -26 -16 -4 -39 -18 -51
-31 -11 -13 -28 -24 -37 -24 -9 0 -59 -22 -111 -48 -52 -27 -112 -51 -133 -55
-21 -3 -49 -16 -61 -27 -13 -12 -43 -24 -67 -27 -23 -4 -63 -17 -87 -30 -24
-12 -52 -23 -62 -23 -10 0 -36 -9 -57 -20 -21 -11 -69 -24 -105 -28 -40 -5
-74 -15 -86 -26 -13 -12 -48 -22 -98 -28 -43 -6 -103 -18 -133 -28 -30 -10
-82 -21 -115 -25 -33 -4 -75 -13 -93 -20 -18 -8 -107 -19 -200 -25 -92 -6
-224 -16 -293 -22 -94 -8 -149 -8 -216 1 -49 6 -157 11 -239 11 -200 0 -456
17 -518 35 -28 7 -82 17 -121 21 -38 3 -81 12 -95 19 -14 7 -68 18 -120 24
-64 8 -108 20 -135 35 -22 13 -65 26 -95 29 -31 3 -76 14 -100 25 -105 46
-157 65 -191 69 -22 3 -50 17 -68 34 -21 19 -43 29 -64 29 -18 0 -43 9 -57 20
-14 11 -29 20 -34 20 -5 0 -35 14 -68 30 -32 17 -64 30 -71 30 -7 0 -24 14
-39 30 -15 17 -36 30 -49 30 -12 0 -30 7 -40 16 -21 19 -71 49 -121 72 -21 9
-40 24 -43 33 -3 9 -22 23 -43 32 -20 9 -55 30 -77 47 -53 41 -103 76 -142
101 -18 12 -33 25 -33 30 0 4 -11 14 -25 21 -13 7 -48 34 -77 60 -29 26 -93
82 -143 125 -113 98 -367 356 -465 472 -25 29 -52 61 -61 71 -39 42 -171 203
-229 281 -35 46 -67 86 -70 89 -3 3 -22 30 -43 60 -20 30 -57 82 -81 115 -45
60 -151 217 -211 310 -58 90 -64 100 -93 140 -15 22 -43 67 -62 100 -30 53
-54 92 -91 145 -11 17 -30 51 -54 95 -8 17 -31 55 -49 85 -19 30 -71 123 -117
205 -45 83 -90 159 -99 170 -10 11 -21 31 -25 45 -4 14 -15 36 -25 50 -10 14
-41 70 -69 125 -28 55 -56 107 -60 115 -5 8 -21 40 -36 70 -15 30 -33 62 -40
70 -8 8 -17 29 -21 45 -3 17 -12 37 -19 45 -7 8 -29 49 -49 90 -20 41 -41 82
-45 90 -9 15 -255 516 -339 692 -23 48 -42 92 -42 97 0 6 -11 27 -25 47 -14
20 -25 42 -25 49 0 6 -13 38 -29 71 -25 52 -67 142 -100 214 -6 14 -15 32 -19
40 -5 8 -16 31 -25 50 -15 35 -58 129 -104 230 -14 30 -31 67 -39 82 -8 14
-14 35 -14 46 0 11 -7 25 -15 32 -8 7 -15 17 -15 23 0 6 -20 52 -44 102 -25
50 -48 103 -51 118 -4 14 -13 31 -21 38 -8 6 -14 19 -14 28 0 9 -9 35 -20 56
-26 51 -76 163 -84 192 -6 19 17 48 140 180 81 87 157 167 169 178 12 11 64
67 116 125 268 298 384 447 503 645 26 44 52 87 57 95 5 8 14 26 21 40 70 150
88 193 88 209 0 10 9 30 20 43 10 14 22 45 25 69 4 24 13 60 20 79 37 94 58
244 63 453 3 143 1 211 -7 221 -9 10 -74 13 -328 11 -175 -1 -486 -2 -691 -3
l-372 -2 -17 -35 c-14 -30 -15 -41 -3 -90 7 -31 24 -67 36 -80 13 -14 27 -31
31 -38 4 -7 19 -18 33 -25 55 -28 191 -125 234 -167 40 -40 96 -108 96 -118 0
-5 9 -28 19 -51 38 -81 45 -166 32 -392 -8 -132 -19 -238 -32 -289 -10 -44
-19 -89 -19 -100 0 -11 -11 -42 -25 -69 -14 -27 -25 -59 -25 -70 0 -12 -16
-50 -35 -86 -19 -35 -35 -72 -35 -82 0 -9 -8 -25 -18 -35 -10 -10 -28 -35 -40
-56 -54 -94 -268 -352 -347 -419 -5 -4 -41 -33 -80 -63 -38 -29 -81 -65 -95
-78 -14 -14 -36 -30 -50 -37 -14 -7 -27 -16 -30 -20 -9 -11 -98 -70 -107 -70
-5 0 -20 -12 -32 -26 -17 -19 -26 -23 -34 -15 -8 8 -12 877 -14 3236 l-3 3226
-23 56 c-12 31 -35 65 -50 77 -27 20 -28 20 -85 1 -76 -25 -126 -66 -369 -300
-182 -176 -445 -405 -523 -457 -14 -9 -45 -35 -70 -57 -25 -23 -51 -41 -57
-41 -7 0 -20 -11 -29 -25 -9 -14 -22 -25 -29 -25 -8 0 -33 -19 -56 -41 -24
-23 -59 -51 -79 -64 -19 -12 -41 -30 -49 -39 -7 -9 -21 -16 -31 -16 -11 0 -29
-18 -44 -44 -24 -42 -25 -46 -12 -94 19 -73 39 -100 83 -108 56 -9 141 -53
162 -83 40 -57 62 -116 83 -224 l23 -112 2 -3694 c2 -2356 0 -3725 -6 -3780
-18 -155 -60 -253 -121 -281 -13 -6 -30 -20 -37 -30 -7 -10 -34 -26 -61 -35
-65 -22 -90 -46 -114 -107 -31 -80 -33 -113 -10 -136 19 -19 44 -19 955 -27
514 -4 940 -4 945 -1 16 10 23 85 12 126 -8 29 -21 46 -57 69 -25 17 -54 31
-63 31 -10 0 -28 8 -41 19 -13 10 -35 22 -48 26 -35 11 -89 73 -107 125 -9 25
-25 66 -35 92 -17 43 -19 77 -19 395 0 191 -6 578 -12 858 -16 675 -16 767 -1
772 7 3 18 -8 23 -24 6 -15 17 -32 24 -38 7 -5 27 -40 45 -77 18 -37 36 -70
41 -73 5 -3 11 -18 15 -34 3 -16 15 -37 26 -47 10 -9 19 -22 19 -29 0 -10 25
-63 69 -145 30 -58 45 -87 91 -180 28 -58 56 -114 62 -125 6 -11 36 -69 66
-130 30 -60 60 -117 67 -125 7 -8 16 -26 20 -40 4 -14 23 -52 42 -84 19 -32
37 -72 40 -87 3 -15 14 -36 24 -45 11 -9 19 -23 19 -31 0 -7 18 -45 40 -84 22
-39 43 -82 46 -95 3 -13 10 -26 14 -29 5 -3 36 -60 69 -128 34 -67 65 -129 70
-137 5 -8 14 -26 20 -40 6 -14 23 -45 37 -70 14 -25 55 -101 91 -170 37 -69
76 -141 87 -160 25 -41 37 -62 106 -195 29 -55 58 -107 65 -115 7 -8 26 -42
43 -75 17 -34 48 -88 70 -120 21 -33 56 -91 77 -130 20 -38 48 -84 61 -102 13
-17 24 -36 24 -41 0 -5 16 -30 35 -55 19 -25 35 -50 35 -56 0 -5 10 -22 23
-38 21 -25 65 -95 107 -172 17 -31 100 -143 111 -151 4 -3 13 -17 19 -30 6
-14 23 -42 38 -62 15 -20 45 -63 67 -95 22 -32 53 -76 70 -99 16 -22 39 -53
50 -68 11 -16 32 -43 46 -60 14 -17 41 -53 59 -80 18 -27 58 -79 89 -115 31
-36 63 -76 71 -87 36 -52 153 -189 165 -194 7 -3 46 -36 86 -75 41 -38 81 -74
91 -80 30 -19 165 -125 178 -140 7 -8 19 -15 27 -15 7 0 41 -22 74 -50 33 -27
64 -50 68 -50 5 0 25 -13 46 -30 21 -16 45 -30 55 -30 9 0 25 -9 35 -20 10
-11 27 -22 39 -26 11 -4 34 -17 49 -30 16 -13 35 -24 42 -24 7 0 26 -11 42
-24 15 -13 45 -28 65 -35 20 -7 42 -18 48 -26 6 -7 24 -17 40 -20 16 -3 34
-12 40 -20 6 -8 34 -21 61 -30 27 -9 54 -25 59 -36 8 -14 21 -19 49 -19 25 0
44 -7 56 -20 10 -11 37 -26 59 -32 23 -7 55 -20 72 -29 17 -9 44 -20 61 -23
17 -4 45 -18 64 -32 22 -16 46 -24 74 -24 29 0 47 -6 59 -19 10 -11 41 -25 69
-32 29 -6 71 -20 95 -31 24 -10 54 -18 66 -18 13 0 44 -11 70 -25 26 -14 72
-28 104 -32 31 -3 71 -15 88 -25 17 -10 67 -25 110 -33 44 -8 101 -21 128 -30
27 -8 62 -15 77 -15 15 0 48 -9 74 -20 26 -11 88 -24 143 -29 53 -5 122 -18
152 -29 31 -12 108 -25 175 -32 66 -6 145 -16 175 -21 30 -5 141 -17 245 -25
105 -8 226 -18 270 -24 103 -12 579 -12 670 0 39 5 138 14 220 20 83 6 191 17
240 25 132 21 241 35 281 35 19 0 54 9 77 20 25 13 80 25 139 31 55 5 116 18
140 29 24 11 55 20 69 20 14 0 51 9 81 19 31 10 82 24 114 31 33 7 73 20 90
31 17 10 56 21 87 25 36 4 69 15 89 30 17 13 43 24 57 24 14 0 40 9 58 19 17
11 47 23 67 26 19 4 49 18 67 31 18 13 47 24 63 24 19 0 43 10 60 25 17 14 41
28 55 32 14 3 38 14 53 24 14 11 33 19 41 19 7 0 34 13 58 30 24 16 54 30 67
30 12 0 25 7 29 16 3 9 29 27 57 41 90 43 122 61 135 77 8 9 21 16 31 16 9 0
30 12 47 28 16 15 45 36 63 47 53 31 59 35 163 113 93 69 263 210 318 263 14
13 54 52 90 85 35 34 93 93 129 131 179 191 231 262 256 353 8 30 25 78 36
105 20 46 21 69 21 286 0 217 -1 240 -20 275 -11 22 -23 54 -26 72 -20 103
-178 337 -288 427 -33 28 -73 62 -87 76 -15 14 -40 29 -57 33 -16 4 -40 16
-51 27 -12 11 -45 26 -74 34 -29 8 -58 19 -63 24 -6 6 -27 11 -47 11 -90 0
-112 33 -57 83 40 37 206 233 256 303 96 134 185 282 240 399 18 39 36 77 41
86 4 8 20 47 34 85 15 38 38 92 51 120 14 28 25 57 25 65 0 7 8 36 19 64 33
88 43 119 55 175 7 30 20 69 29 87 10 18 17 56 17 85 1 29 8 71 16 93 8 22 21
62 29 89 8 26 16 50 19 53 13 13 26 -46 32 -139 4 -56 13 -115 21 -130 7 -15
16 -49 19 -75 6 -46 15 -83 49 -188 9 -27 23 -72 31 -99 7 -26 18 -53 22 -60
5 -6 15 -27 21 -47 6 -20 34 -78 62 -130 28 -52 58 -107 67 -124 8 -16 18 -32
21 -35 3 -3 22 -28 41 -56 63 -91 124 -158 265 -287 21 -21 44 -37 51 -37 6 0
18 -8 27 -18 9 -10 50 -35 91 -55 41 -21 79 -44 86 -52 6 -8 33 -17 58 -21 26
-3 71 -17 100 -31 50 -23 61 -24 243 -24 176 1 194 2 227 22 20 11 61 25 91
30 30 4 64 17 75 28 12 10 32 22 45 26 45 14 209 128 279 195 55 53 154 166
210 240 64 85 152 219 152 231 0 5 18 42 41 81 22 40 43 85 46 100 14 70 52
53 62 -28 8 -63 48 -203 62 -218 5 -6 9 -18 9 -29 0 -32 102 -257 144 -320 15
-21 26 -41 26 -44 0 -4 21 -38 47 -76 52 -77 218 -237 246 -237 11 0 33 -10
50 -22 29 -21 44 -23 152 -23 107 0 124 2 156 23 20 12 43 22 51 22 8 0 24 11
36 25 12 14 28 25 37 25 8 0 29 13 47 29 29 25 137 117 192 161 29 24 307 305
352 358 122 139 275 346 289 392 4 14 16 35 26 48 21 28 43 124 34 152 -14 43
-34 29 -227 -161 -189 -186 -198 -194 -258 -233 -25 -16 -58 -37 -73 -48 -16
-11 -52 -22 -81 -25 -44 -5 -56 -2 -72 14 -10 11 -32 28 -48 38 -48 31 -118
160 -132 245 -3 19 -12 67 -20 107 -17 87 -18 300 -2 363 14 52 13 522 -2
1360 -5 294 -10 940 -11 1435 -1 495 -5 977 -8 1070 l-6 170 -30 3 c-16 1 -89
14 -162 28 -128 25 -140 25 -465 21 -309 -3 -337 -5 -396 -25 -35 -12 -83 -22
-105 -22 -23 0 -86 -11 -140 -25 -54 -14 -105 -25 -115 -25 -9 0 -38 -11 -64
-25 -26 -14 -63 -25 -83 -25 -37 0 -69 -13 -93 -37 -7 -7 -25 -15 -40 -18 -15
-3 -48 -17 -73 -30 -26 -14 -53 -25 -61 -25 -8 0 -23 -9 -33 -20 -10 -11 -33
-23 -52 -26 -19 -4 -49 -19 -66 -35 -17 -16 -37 -29 -43 -29 -6 0 -19 -9 -29
-20 -10 -11 -22 -20 -27 -20 -17 0 -197 -136 -303 -229 -40 -35 -229 -236
-260 -276 -22 -27 -47 -59 -57 -70 -19 -21 -57 -75 -132 -185 -37 -56 -81
-129 -158 -265 -25 -44 -78 -153 -78 -161 0 -3 -9 -17 -20 -31 -11 -14 -20
-35 -20 -46 0 -11 -6 -28 -14 -36 -13 -15 -42 -88 -68 -171 -5 -19 -17 -44
-24 -55 -8 -11 -14 -33 -14 -50 0 -17 -8 -42 -17 -55 -18 -25 -56 -140 -72
-217 -4 -24 -14 -49 -20 -57 -6 -8 -14 -38 -17 -67 -4 -30 -15 -72 -25 -95
-10 -22 -19 -56 -19 -75 0 -19 -7 -59 -15 -89 -9 -30 -20 -86 -25 -124 -9 -66
-25 -95 -43 -77 -4 4 -12 37 -17 73 -5 35 -16 81 -25 101 -8 20 -15 54 -15 75
0 22 -9 68 -20 102 -11 34 -20 73 -20 87 0 13 -8 38 -17 56 -9 18 -20 50 -24
72 -6 39 -36 120 -65 178 -8 16 -14 34 -14 40 0 18 -163 354 -213 439 -63 106
-102 170 -147 238 -28 41 -53 82 -58 91 -7 16 -45 66 -147 197 -33 43 -73 95
-90 117 -16 22 -34 45 -40 50 -7 6 -41 46 -76 90 -83 104 -131 157 -308 343
-80 84 -149 159 -154 167 -4 8 -12 15 -18 15 -5 0 -47 37 -92 83 -46 45 -149
139 -228 209 -79 70 -155 138 -169 151 -59 56 -220 187 -229 187 -6 0 -15 8
-20 18 -5 9 -44 44 -86 77 -43 33 -88 70 -102 83 -13 12 -27 22 -32 22 -4 0
-20 14 -36 30 -16 17 -33 30 -37 30 -8 0 -25 14 -89 73 -17 15 -35 27 -40 27
-12 0 -91 60 -102 78 -4 6 -22 19 -40 28 -18 10 -38 25 -45 35 -7 11 -19 19
-25 19 -21 0 -87 64 -87 85 0 12 19 35 44 56 92 74 251 214 297 262 15 15 31
27 36 27 4 0 33 25 63 55 29 30 59 55 64 55 6 0 33 23 61 50 27 28 84 78 125
111 41 34 82 67 90 75 8 7 31 28 51 46 107 98 203 183 275 244 45 38 115 99
156 137 42 37 78 67 82 67 3 0 25 19 49 43 23 23 62 58 86 77 24 19 51 43 60
54 9 10 32 29 51 42 127 86 156 104 172 104 9 0 22 9 28 19 5 11 20 23 32 27
39 11 152 66 171 83 10 8 44 18 76 22 34 4 70 15 87 27 19 14 63 27 124 36 53
9 115 22 139 31 24 8 57 15 75 15 17 0 53 9 81 20 27 10 71 22 98 25 31 4 55
14 70 29 12 13 33 26 47 29 40 10 204 178 235 241 15 31 33 60 40 66 8 6 17
25 20 41 4 17 13 42 21 57 8 15 14 40 14 55 0 15 7 44 15 65 20 47 21 175 1
244 -14 50 -23 90 -46 196 -5 24 -19 55 -30 69 -11 14 -20 35 -20 46 0 46
-206 307 -242 307 -4 0 -22 13 -40 29 -81 70 -331 71 -417 1 -19 -17 -38 -30
-42 -30 -19 0 -82 -75 -122 -145 -41 -73 -46 -88 -51 -165 -3 -47 -2 -123 3
-170 8 -74 15 -94 52 -155 23 -39 45 -72 48 -75 3 -3 25 -26 48 -53 74 -86
181 -123 311 -107 68 9 108 35 138 92 21 40 18 101 -7 132 -18 23 -28 26 -78
26 -51 0 -61 3 -86 30 -16 17 -34 30 -40 30 -15 0 -46 35 -73 83 -15 25 -22
55 -22 88 0 46 4 54 46 99 44 48 49 50 99 50 42 0 55 -4 73 -25 12 -14 28 -25
36 -25 15 0 126 -118 126 -135 0 -5 7 -23 16 -40 49 -93 64 -156 64 -266 0
-84 -5 -120 -20 -161 -21 -55 -84 -138 -105 -138 -7 0 -30 -14 -51 -31 l-38
-30 -222 3 c-193 3 -224 5 -241 20 -10 10 -43 23 -73 30 -30 6 -67 20 -82 30
-14 10 -33 18 -41 18 -9 0 -29 11 -45 25 -17 14 -35 25 -41 25 -5 0 -26 14
-44 30 -19 17 -38 30 -41 30 -7 0 -71 49 -112 85 -12 11 -45 40 -74 65 -29 25
-83 74 -120 110 -185 177 -231 220 -237 220 -3 0 -30 23 -59 50 -29 28 -57 50
-63 50 -5 0 -12 8 -16 18 -3 11 -16 24 -29 30 -13 6 -46 27 -73 48 -26 20 -63
43 -82 51 -19 8 -43 26 -53 39 -12 14 -30 24 -45 24 -14 0 -38 11 -55 25 -16
14 -38 25 -48 25 -10 0 -39 9 -64 19 -25 11 -62 23 -83 27 -21 4 -58 18 -82
32 l-44 26 -326 0 -326 0 -55 -26 c-30 -14 -73 -29 -95 -33 -57 -10 -184 -54
-220 -75 -16 -10 -44 -21 -61 -24 -17 -4 -40 -18 -52 -30 -11 -13 -34 -27 -50
-31 -16 -3 -38 -15 -48 -26 -9 -10 -22 -19 -29 -19 -6 0 -22 -11 -35 -25 -13
-14 -29 -25 -35 -25 -6 0 -24 -13 -38 -30 -15 -16 -31 -30 -35 -30 -8 0 -93
-83 -188 -185 -62 -66 -134 -159 -134 -173 0 -5 -9 -17 -21 -28 -11 -10 -27
-32 -35 -49 -8 -16 -23 -43 -34 -60 -30 -47 -170 -331 -170 -346 0 -8 -6 -26
-14 -41 -8 -15 -17 -41 -21 -59 -4 -17 -16 -50 -26 -73 -10 -22 -19 -54 -19
-70 0 -16 -8 -43 -19 -60 -10 -17 -22 -58 -26 -91 -3 -33 -13 -82 -20 -110
-51 -183 -69 -439 -62 -845 6 -294 13 -362 58 -560 6 -25 16 -76 22 -115 7
-38 20 -81 30 -95 9 -13 17 -37 17 -53 0 -15 9 -45 20 -67 11 -22 20 -47 20
-57 0 -10 9 -31 20 -48 11 -16 20 -46 20 -66 0 -35 -3 -37 -57 -62 -32 -13
-76 -28 -98 -32 -22 -4 -49 -15 -60 -25 -14 -12 -50 -21 -118 -29 -54 -6 -131
-20 -170 -31 -95 -26 -392 -29 -477 -4 -30 9 -100 22 -154 30 -70 10 -106 20
-120 33 -12 11 -39 23 -61 27 -22 4 -71 23 -110 42 -38 19 -91 45 -116 58 -25
13 -52 30 -59 39 -7 8 -18 15 -26 15 -7 0 -29 14 -47 30 -19 17 -37 30 -41 30
-7 0 -10 3 -151 122 -112 95 -241 223 -260 258 -6 11 -27 37 -47 58 -19 21
-59 67 -87 102 -28 36 -56 71 -63 79 -17 20 -125 178 -156 230 -15 23 -44 70
-65 103 -22 33 -45 75 -53 93 -7 19 -18 36 -24 40 -5 3 -10 14 -10 24 0 10 -9
30 -20 44 -11 14 -20 34 -20 45 0 10 -9 31 -21 46 -11 14 -34 64 -50 110 -16
46 -36 96 -44 112 -8 16 -15 37 -15 47 0 10 -7 32 -17 50 -17 34 -46 136 -63
227 -6 30 -17 73 -25 95 -7 22 -16 96 -19 165 -3 69 -12 159 -21 200 -18 82
-15 171 11 335 8 50 14 113 14 140 0 28 6 62 14 77 8 15 17 42 21 60 11 50 45
149 65 188 43 85 100 207 100 217 0 5 10 18 21 29 12 10 25 28 31 39 23 49 41
78 109 169 44 59 63 80 174 198 86 90 264 220 320 234 17 3 40 16 52 27 25 22
172 50 268 50 127 0 361 -31 406 -53 23 -12 65 -26 93 -30 55 -9 140 -42 197
-78 20 -12 43 -22 51 -22 8 0 27 -11 42 -25 15 -14 33 -25 40 -25 8 0 20 -7
27 -16 8 -9 30 -27 50 -39 34 -22 49 -36 124 -118 67 -75 175 -254 175 -294 1
-10 9 -36 20 -58 17 -36 19 -63 20 -253 0 -187 -2 -219 -20 -269 -11 -32 -20
-69 -20 -83 0 -76 -157 -426 -225 -500 -12 -14 -27 -33 -32 -43 -16 -30 -194
-217 -207 -217 -6 0 -29 -18 -50 -39 -46 -47 -43 -68 17 -101 23 -12 52 -32
65 -44 21 -18 34 -20 144 -19 105 2 124 5 142 22 12 11 50 25 86 32 64 12 67
14 155 104 79 80 218 263 233 305 2 8 20 47 38 87 19 40 34 78 34 85 0 7 10
31 22 53 12 22 25 67 29 100 3 33 14 89 24 125 14 53 16 94 13 235 -2 112 -8
178 -17 193 -7 13 -16 59 -21 103 -4 47 -14 87 -23 97 -8 9 -20 37 -27 62 -7
25 -25 70 -40 100 -16 30 -32 66 -35 80 -4 14 -14 32 -22 41 -7 9 -37 50 -66
92 -29 42 -83 110 -121 152 -67 75 -226 215 -244 215 -5 0 -17 9 -28 21 -19
21 -46 37 -130 79 -23 11 -47 26 -53 34 -7 8 -27 18 -44 21 -18 4 -48 18 -67
31 -20 13 -56 28 -80 32 -25 5 -63 19 -85 30 -22 12 -49 22 -60 22 -11 0 -30
7 -41 15 -12 8 -50 19 -85 24 -97 15 -379 21 -514 10z m3659 -1139 c59 -7 98
-17 116 -30 16 -11 31 -20 36 -20 20 0 117 -76 170 -132 58 -63 155 -210 169
-258 4 -14 14 -34 21 -45 8 -11 14 -33 14 -49 0 -16 11 -52 24 -80 30 -65 52
-293 42 -429 -15 -197 -22 -244 -38 -270 -10 -14 -21 -52 -24 -84 -4 -32 -15
-69 -26 -82 -10 -13 -18 -31 -18 -40 0 -20 -85 -189 -124 -246 -91 -133 -562
-628 -795 -835 -47 -41 -100 -88 -118 -105 -111 -100 -103 -97 -136 -61 -13
14 -36 28 -52 32 -41 10 -131 81 -235 185 -73 72 -96 103 -128 171 -24 49 -42
106 -46 140 -4 32 -16 82 -27 113 -10 30 -19 68 -19 84 0 16 -6 56 -14 88 -8
32 -20 145 -27 251 -18 279 3 532 58 702 8 25 20 65 26 90 7 25 20 56 30 70 9
13 17 30 17 37 0 40 146 275 241 388 56 67 196 206 286 285 21 17 52 34 188
103 62 31 241 44 389 27z m-1569 -3637 c38 -43 104 -118 149 -168 93 -102 527
-539 631 -634 126 -115 183 -166 216 -191 18 -14 44 -37 58 -52 14 -16 29 -28
33 -28 5 0 77 -57 162 -127 84 -71 168 -139 186 -153 18 -14 50 -40 70 -57 21
-18 41 -33 44 -33 11 0 89 -62 104 -82 7 -10 17 -18 22 -18 5 0 80 -59 167
-131 87 -72 172 -142 188 -155 265 -216 599 -596 784 -893 24 -39 49 -75 56
-81 7 -6 16 -21 19 -34 3 -13 21 -47 40 -75 23 -33 37 -68 40 -99 4 -26 15
-74 25 -107 11 -33 22 -105 26 -160 4 -55 13 -123 20 -152 8 -29 19 -169 26
-312 10 -209 10 -299 0 -468 -7 -114 -19 -230 -26 -258 -8 -27 -17 -86 -21
-130 -3 -44 -13 -92 -21 -108 -7 -15 -18 -51 -23 -80 -12 -64 -50 -188 -63
-205 -5 -7 -13 -33 -18 -58 -5 -25 -18 -57 -29 -71 -11 -14 -20 -34 -20 -43 0
-10 -18 -50 -40 -89 -22 -39 -40 -75 -40 -80 0 -5 -19 -38 -42 -74 -24 -35
-54 -83 -68 -107 -66 -112 -370 -426 -432 -446 -10 -3 -24 -11 -30 -17 -27
-26 -103 -77 -114 -77 -6 0 -28 -13 -49 -30 -21 -16 -49 -30 -63 -30 -14 0
-35 -9 -47 -20 -21 -20 -96 -50 -195 -77 -30 -8 -63 -22 -72 -30 -24 -21 -173
-36 -292 -29 -83 4 -105 9 -137 31 -21 14 -46 25 -54 25 -19 0 -116 51 -155
82 -16 13 -50 39 -75 58 -77 58 -225 243 -274 340 -6 14 -25 50 -42 80 -16 30
-29 59 -29 66 0 6 -11 28 -25 48 -14 20 -25 46 -25 56 0 11 -9 37 -20 57 -11
21 -20 45 -20 55 0 9 -9 40 -20 68 -11 28 -20 65 -20 83 0 18 -9 51 -20 74
-11 26 -22 78 -26 130 -3 49 -13 120 -21 158 -20 100 -28 397 -13 530 7 61 14
130 16 155 21 249 29 308 40 325 7 11 18 45 25 75 6 30 18 64 25 75 8 11 14
27 14 36 0 9 7 22 15 29 8 7 20 30 25 51 6 22 15 39 19 39 5 0 24 26 41 58 18
31 49 76 69 100 69 82 206 222 217 222 7 0 18 10 26 23 9 12 49 39 91 60 41
21 80 44 87 52 6 7 30 17 53 20 23 4 63 18 89 31 43 22 60 24 190 24 131 0
147 -2 188 -24 25 -13 57 -26 73 -30 33 -8 127 -79 183 -138 47 -50 104 -127
104 -142 0 -5 9 -19 19 -30 10 -12 29 -46 41 -76 12 -30 30 -74 41 -98 23 -51
26 -142 5 -142 -7 0 -22 12 -31 28 -23 35 -92 101 -130 123 -121 71 -156 83
-271 87 -98 4 -118 1 -182 -21 -39 -14 -96 -41 -125 -60 -58 -39 -157 -142
-157 -164 0 -8 -9 -31 -19 -51 -14 -27 -23 -85 -35 -207 -20 -209 -20 -264 -1
-435 23 -207 65 -329 152 -441 24 -31 55 -62 68 -69 14 -7 25 -17 25 -21 0 -5
17 -17 38 -27 20 -11 51 -27 67 -36 17 -9 41 -16 54 -16 14 0 43 -12 65 -27
l39 -28 182 0 181 0 33 28 c18 15 40 27 50 27 26 0 154 96 185 139 12 16 40
53 62 82 23 30 53 81 68 114 15 33 33 71 41 85 7 14 16 41 20 60 4 19 16 54
26 77 11 23 19 60 19 82 0 22 9 77 20 123 25 106 27 328 4 433 -9 39 -19 106
-23 150 -4 44 -15 94 -24 112 -9 18 -17 41 -17 52 0 45 -133 353 -184 426 -12
17 -27 39 -34 50 -35 56 -54 80 -122 159 -41 47 -80 86 -86 86 -6 0 -16 11
-24 24 -7 13 -33 38 -59 54 -25 17 -57 42 -70 56 -14 14 -29 26 -34 26 -5 0
-25 14 -44 30 -18 17 -42 30 -52 30 -10 0 -26 9 -36 20 -10 11 -22 20 -28 20
-5 0 -31 11 -58 25 -27 13 -66 27 -86 31 -21 4 -50 17 -65 29 -18 16 -46 24
-95 29 -37 4 -97 16 -132 26 -92 29 -385 29 -463 1 -29 -11 -80 -22 -112 -26
-40 -5 -70 -15 -91 -31 -18 -13 -36 -24 -41 -24 -6 0 -38 -19 -73 -42 -35 -24
-74 -49 -86 -55 -13 -7 -30 -24 -39 -38 -9 -14 -23 -25 -31 -25 -18 0 -301
-282 -343 -342 -55 -78 -168 -262 -191 -313 -13 -27 -30 -63 -38 -80 -22 -44
-63 -174 -63 -199 0 -11 -9 -34 -20 -51 -10 -16 -22 -54 -25 -85 -3 -30 -13
-86 -20 -125 -37 -182 -51 -603 -26 -741 6 -32 11 -61 11 -66 0 -13 -76 -88
-90 -88 -12 0 -77 -58 -183 -165 -51 -51 -65 -60 -96 -60 -55 0 -92 21 -138
79 -24 29 -43 57 -43 62 0 5 -11 31 -24 59 -35 73 -51 236 -51 515 1 129 7
1079 14 2110 11 1593 15 1877 27 1891 11 12 39 18 107 21 67 4 103 11 133 26
27 14 71 24 125 28 52 4 106 16 141 30 32 13 66 24 76 24 10 0 51 11 90 25 39
14 82 25 94 25 13 0 41 11 63 25 63 38 75 34 150 -52z m-2052 -877 c20 -21 27
-294 27 -1131 0 -390 6 -933 12 -1205 7 -272 11 -521 11 -552 -3 -88 -30 -250
-47 -283 -9 -16 -16 -37 -16 -45 0 -8 -7 -28 -15 -44 -8 -15 -15 -34 -15 -40
0 -10 -62 -135 -129 -261 -33 -62 -173 -243 -252 -326 -51 -53 -158 -139 -174
-139 -7 0 -28 -12 -46 -27 -32 -28 -35 -28 -169 -28 -156 0 -153 -1 -263 110
-54 55 -117 161 -117 197 0 7 -9 30 -20 51 -13 23 -20 56 -20 89 0 36 -7 63
-20 83 -12 18 -20 47 -20 73 0 23 -9 97 -19 165 -11 67 -25 183 -31 257 -6 74
-15 164 -20 200 -12 84 -12 682 0 780 5 41 14 134 20 206 5 73 19 185 30 250
11 66 20 139 20 164 1 25 9 63 20 85 11 23 19 62 20 92 0 29 9 81 20 115 49
154 59 185 64 216 3 19 15 45 26 59 11 14 20 37 20 52 0 14 9 44 19 66 101
206 126 257 155 303 18 29 40 58 48 65 8 7 26 30 41 52 38 57 130 151 155 160
12 3 22 10 22 15 0 11 119 90 134 90 5 0 19 9 30 19 13 12 47 24 84 30 35 6
78 19 95 30 28 17 51 19 169 20 105 1 140 -2 151 -13z m8448 -116 c20 -23 26
-131 34 -595 4 -176 12 -423 20 -550 8 -126 17 -477 20 -780 4 -345 12 -615
22 -725 8 -96 17 -340 20 -542 5 -356 5 -368 -15 -401 -11 -19 -23 -50 -27
-68 -8 -38 -91 -205 -106 -214 -5 -4 -15 -21 -23 -38 -18 -44 -220 -248 -276
-279 -25 -14 -78 -33 -119 -42 -67 -15 -78 -15 -135 0 -33 9 -74 24 -91 34
-35 22 -102 91 -134 137 -29 43 -91 164 -91 179 0 6 -7 17 -15 24 -8 7 -15 27
-15 45 0 18 -8 43 -18 56 -17 23 -72 177 -72 202 0 7 -7 26 -16 42 -9 17 -18
59 -21 95 -3 36 -13 88 -23 115 -19 51 -55 271 -66 405 -3 41 -13 102 -22 135
-13 52 -16 150 -16 700 -1 572 1 646 16 695 9 30 21 89 27 130 18 145 43 265
62 302 10 20 19 51 19 67 0 17 12 61 26 98 15 38 35 91 46 118 30 78 96 203
147 280 67 102 266 295 305 295 5 0 26 11 45 24 104 70 446 109 492 56z"/>
<path d="M40370 13336 c-63 -22 -125 -53 -139 -70 -7 -9 -19 -16 -25 -16 -19
0 -113 -96 -148 -152 -64 -101 -88 -148 -88 -171 0 -10 -7 -28 -15 -41 -19
-29 -33 -96 -47 -221 -10 -89 -9 -114 11 -228 12 -71 28 -138 35 -150 8 -12
19 -41 25 -63 6 -23 18 -47 26 -54 8 -7 15 -17 15 -22 0 -30 141 -198 167
-198 7 0 20 -11 29 -25 9 -14 25 -25 36 -25 11 0 33 -9 50 -21 36 -26 164 -59
229 -59 65 0 199 36 225 61 11 10 29 19 40 19 10 0 32 14 47 30 16 17 35 30
43 30 8 0 14 3 14 8 0 4 20 28 45 55 25 26 54 64 65 85 11 20 24 44 29 52 6 8
18 35 29 60 11 25 27 62 36 83 37 87 40 491 3 562 -8 17 -25 57 -38 90 -27 72
-95 174 -155 233 -24 23 -44 47 -44 52 0 6 -8 10 -17 10 -9 0 -26 8 -37 18
-12 10 -54 33 -94 50 -69 31 -78 32 -195 31 -67 -1 -138 -7 -157 -13z"/>
<path d="M18591 13059 c-30 -16 -62 -29 -72 -29 -11 0 -19 -4 -19 -8 0 -4 -15
-16 -32 -27 -50 -29 -134 -112 -173 -171 -20 -29 -40 -56 -45 -59 -6 -3 -10
-14 -10 -23 0 -9 -7 -30 -16 -47 -48 -88 -66 -176 -71 -340 -5 -162 -5 -162
38 -328 5 -20 18 -54 29 -75 11 -20 20 -41 20 -47 0 -35 203 -265 234 -265 5
0 24 -11 43 -26 19 -14 56 -29 86 -34 28 -4 65 -13 80 -19 40 -16 117 -14 167
4 23 8 59 15 80 15 26 0 48 9 75 30 21 17 43 30 50 30 17 0 143 126 181 181
56 80 114 207 114 249 0 11 9 46 20 77 28 80 28 269 1 345 -10 29 -21 69 -24
89 -6 40 -84 205 -122 259 -33 46 -144 150 -160 150 -7 0 -15 6 -18 14 -3 8
-23 20 -44 27 -21 7 -58 23 -82 36 -39 20 -57 23 -160 22 -109 0 -119 -2 -170
-30z"/>
<path d="M17120 12999 c-19 -11 -47 -32 -63 -49 -34 -36 -107 -180 -107 -212
0 -13 -12 -45 -25 -73 -14 -27 -25 -60 -25 -73 0 -25 -34 -137 -56 -187 -7
-16 -17 -55 -20 -85 -4 -30 -13 -64 -20 -75 -7 -11 -27 -76 -44 -145 -18 -69
-37 -134 -43 -145 -6 -11 -14 -38 -18 -60 -4 -22 -16 -62 -27 -90 -12 -27 -38
-93 -58 -145 -42 -109 -46 -117 -103 -223 -52 -98 -106 -181 -148 -229 -68
-78 -182 -174 -238 -202 -33 -15 -67 -35 -77 -43 -10 -9 -57 -18 -125 -24 -59
-6 -119 -15 -132 -22 -36 -18 -51 -66 -51 -160 0 -81 1 -84 33 -114 48 -47 74
-53 228 -53 136 0 140 -1 147 -22 4 -13 9 -228 11 -478 1 -250 9 -626 17 -835
8 -209 19 -767 24 -1240 17 -1675 21 -1793 61 -1903 10 -30 19 -77 19 -105 0
-35 7 -62 20 -82 11 -16 20 -40 20 -52 0 -12 30 -81 66 -152 57 -114 77 -142
153 -221 48 -49 94 -90 102 -90 9 0 26 -11 39 -25 13 -14 30 -25 37 -25 8 0
31 -11 51 -25 20 -14 44 -25 53 -25 9 0 36 -11 61 -24 32 -17 69 -25 133 -30
50 -4 126 -14 171 -22 69 -12 86 -13 120 -1 21 8 61 17 88 21 27 4 66 19 85
32 20 13 40 24 46 24 6 0 31 11 57 25 26 14 53 25 61 25 7 0 24 11 37 25 13
14 30 25 37 25 27 0 167 154 192 210 13 30 34 78 47 106 23 49 24 58 24 295 0
177 -3 248 -12 257 -7 7 -38 12 -71 12 -55 0 -61 -2 -90 -35 -41 -46 -67 -117
-67 -181 0 -29 -9 -96 -20 -149 -11 -53 -20 -113 -20 -133 0 -99 -93 -178
-220 -189 -80 -7 -115 9 -126 55 -4 15 -15 43 -25 62 -10 19 -22 73 -28 120
-6 47 -15 110 -20 140 -15 85 -14 4639 0 4656 9 11 65 14 279 14 l268 0 31 26
c42 35 58 90 42 147 -14 48 -71 115 -104 121 -60 13 -169 15 -327 6 -146 -7
-177 -6 -189 6 -10 9 -16 42 -18 106 -2 51 -8 161 -13 244 -6 82 -15 353 -20
601 -6 272 -15 500 -24 575 -8 67 -18 214 -22 325 -4 133 -10 203 -18 206 -6
2 -27 -4 -46 -14z"/>
<path d="M37480 11153 c-17 -3 -99 -76 -242 -216 -119 -117 -274 -266 -343
-332 -70 -66 -175 -167 -234 -225 -132 -130 -221 -210 -236 -210 -7 0 -27 -19
-46 -42 -32 -41 -34 -47 -33 -116 2 -94 19 -118 184 -270 69 -63 131 -125 137
-138 10 -18 11 -222 3 -971 -5 -521 -12 -1364 -15 -1873 -3 -509 -8 -944 -12
-968 -6 -49 -75 -151 -121 -180 -112 -71 -226 -232 -206 -290 l9 -27 170 -7
c94 -3 260 -11 370 -17 110 -6 421 -11 690 -12 l490 -1 -1 46 c0 56 -20 85
-141 209 -49 51 -103 110 -119 132 -62 82 -62 81 -68 645 -4 283 -13 607 -21
720 -8 113 -19 471 -25 795 -5 325 -15 717 -22 873 -10 253 -10 294 5 390 9
59 19 157 22 217 3 61 12 133 20 160 8 28 19 82 25 120 11 81 41 193 64 247 9
21 16 48 16 60 0 13 6 32 14 43 7 11 28 54 46 95 34 78 64 120 87 120 10 0 13
-27 13 -117 0 -65 5 -165 10 -223 13 -133 54 -350 75 -389 8 -17 15 -40 15
-53 0 -13 6 -32 14 -43 7 -11 28 -53 45 -93 18 -40 51 -101 74 -135 47 -69
159 -187 197 -207 14 -7 33 -24 43 -37 10 -12 27 -23 38 -23 10 0 40 -11 66
-24 52 -27 114 -42 209 -52 77 -8 193 16 284 58 94 44 220 156 280 249 55 86
70 111 70 121 0 6 9 29 19 52 41 88 61 146 61 176 0 17 9 58 20 91 41 120 50
625 13 724 -8 22 -21 65 -28 95 -7 31 -20 70 -29 87 -9 18 -16 38 -16 45 0 19
-79 173 -122 238 -65 101 -192 246 -259 295 -46 35 -110 74 -131 80 -12 4 -35
18 -49 30 -22 18 -45 23 -130 30 -133 10 -138 10 -239 0 -68 -6 -94 -13 -129
-36 -25 -16 -48 -29 -53 -29 -19 0 -116 -69 -176 -126 -64 -59 -192 -206 -192
-219 0 -4 -9 -19 -21 -33 -65 -85 -199 -326 -199 -358 0 -11 -45 -54 -56 -54
-3 0 -2 170 2 378 l7 377 -33 65 c-18 36 -40 70 -49 77 -15 12 -59 14 -111 6z"/>
<path d="M13887 11043 c-34 -32 -73 -67 -85 -78 -13 -11 -35 -31 -50 -45 -15
-14 -56 -49 -92 -78 -36 -29 -69 -56 -73 -61 -5 -5 -16 -16 -25 -25 -20 -20
-259 -219 -311 -259 -20 -15 -48 -40 -63 -55 -15 -15 -42 -39 -60 -54 -18 -15
-77 -65 -130 -111 -54 -46 -113 -92 -131 -101 -19 -8 -47 -33 -63 -53 -25 -32
-29 -47 -29 -98 1 -33 4 -72 8 -87 7 -27 109 -134 252 -265 l78 -72 -7 -633
c-3 -348 -11 -1199 -16 -1890 -6 -772 -14 -1267 -20 -1282 -25 -66 -118 -164
-187 -198 -24 -11 -43 -24 -43 -28 0 -4 -11 -11 -25 -14 -43 -11 -142 -102
-169 -157 -36 -71 -34 -105 5 -101 4 1 85 -3 180 -8 368 -20 744 -29 1269 -32
l545 -3 3 31 c2 25 -6 41 -45 84 -44 49 -151 130 -171 130 -5 0 -19 11 -32 25
-13 14 -29 25 -36 25 -34 0 -161 132 -189 194 -23 50 -23 59 -29 611 -4 308
-11 628 -16 710 -27 431 -32 648 -27 1140 3 397 8 547 20 635 9 63 21 194 26
290 6 96 15 191 20 210 5 19 12 64 16 99 3 36 12 76 19 90 8 14 17 57 21 96 4
38 16 87 26 107 10 20 19 47 19 58 0 52 45 83 54 38 5 -24 18 -147 40 -358 7
-69 18 -138 25 -155 7 -16 16 -48 21 -70 13 -58 47 -152 65 -177 8 -13 15 -30
15 -38 0 -9 10 -30 23 -47 12 -16 31 -42 42 -58 51 -70 77 -99 117 -131 24
-18 47 -34 52 -34 6 0 19 -9 31 -20 12 -11 43 -24 71 -29 27 -6 67 -19 89 -31
48 -25 141 -26 200 -4 22 9 67 23 100 31 70 18 177 66 195 88 7 8 18 15 26 15
7 0 27 12 44 28 16 15 44 38 61 52 109 88 224 236 286 370 19 41 41 87 49 102
8 14 14 39 14 55 0 16 10 47 22 68 21 38 22 51 23 280 0 207 -2 244 -17 271
-9 17 -20 55 -23 85 -7 57 -52 207 -66 224 -5 5 -9 16 -9 25 0 9 -10 38 -23
66 -13 27 -31 65 -40 84 -23 50 -75 137 -128 216 -49 72 -178 214 -196 214 -5
0 -19 10 -31 23 -18 20 -77 53 -152 87 -14 6 -36 18 -50 26 -19 11 -52 14
-145 12 -107 -3 -124 -5 -149 -25 -16 -13 -33 -23 -39 -23 -6 0 -40 -14 -75
-32 -91 -44 -265 -217 -354 -353 -90 -138 -98 -151 -136 -225 -19 -36 -40 -72
-48 -81 -8 -8 -14 -23 -14 -31 0 -24 -60 -133 -73 -133 -9 0 -13 106 -17 411
l-5 411 -29 41 -29 42 -68 0 -69 0 -63 -57z"/>
<path d="M19012 11066 c-16 -19 -42 -60 -57 -92 -23 -48 -64 -115 -117 -189
-72 -99 -280 -315 -305 -315 -5 0 -25 -13 -43 -30 -18 -16 -39 -30 -45 -30 -7
0 -20 -9 -29 -19 -10 -11 -31 -23 -46 -26 -16 -3 -34 -13 -40 -21 -7 -7 -31
-19 -53 -25 -23 -6 -54 -22 -70 -35 -16 -13 -38 -24 -50 -24 -12 0 -42 -11
-67 -24 -25 -13 -57 -26 -72 -30 -42 -10 -87 -54 -98 -97 -14 -53 2 -110 45
-157 27 -31 45 -40 97 -51 34 -7 77 -17 93 -21 17 -5 51 -12 77 -16 26 -3 54
-11 62 -18 12 -9 16 -222 26 -1501 7 -819 18 -1661 24 -1870 7 -209 12 -450
11 -535 -1 -138 -4 -162 -26 -220 -30 -81 -34 -88 -87 -129 -38 -29 -56 -35
-124 -42 -53 -6 -90 -16 -108 -29 -16 -11 -32 -20 -37 -20 -4 0 -20 -18 -35
-39 -31 -43 -59 -174 -41 -192 8 -8 1097 -11 1743 -5 l115 1 7 65 c10 90 -3
131 -55 173 -35 28 -56 36 -122 45 -44 7 -84 18 -90 25 -5 6 -26 24 -46 39
-53 39 -90 117 -105 223 -11 73 -13 564 -14 2552 0 2185 -2 2469 -15 2528 -17
73 -33 103 -79 153 -29 31 -32 32 -112 32 -81 0 -82 -1 -112 -34z"/>
<path d="M40781 10890 c-46 -5 -59 -11 -85 -42 -18 -20 -38 -49 -46 -65 -19
-36 -157 -205 -212 -260 -107 -106 -240 -213 -266 -213 -4 0 -18 -11 -30 -25
-12 -14 -28 -25 -35 -25 -7 0 -28 -11 -47 -25 -19 -14 -41 -25 -50 -25 -9 0
-25 -9 -34 -19 -10 -11 -35 -22 -56 -26 -21 -4 -51 -17 -66 -30 -15 -13 -39
-25 -53 -28 -14 -3 -56 -20 -93 -36 -80 -37 -98 -64 -99 -148 -1 -80 36 -152
101 -193 26 -16 53 -30 61 -30 8 0 27 -9 44 -20 16 -11 55 -22 87 -26 38 -4
59 -12 64 -23 5 -9 11 -650 15 -1426 3 -775 9 -1547 13 -1715 4 -168 9 -386
11 -486 4 -166 2 -187 -20 -269 -17 -66 -30 -95 -49 -110 -83 -67 -95 -72
-171 -79 -131 -12 -199 -77 -211 -203 -6 -63 -5 -72 12 -79 11 -5 428 -7 927
-4 792 4 909 7 917 20 5 8 10 46 10 83 0 59 -4 73 -26 103 -43 55 -76 74 -153
83 -48 6 -80 16 -102 33 -39 30 -89 80 -89 90 0 5 -11 25 -25 46 -23 34 -25
50 -30 172 -3 74 -7 1215 -9 2535 l-4 2400 -29 32 c-31 35 -74 43 -172 33z"/>
</g>
</svg>
